<svg xmlns="http://www.w3.org/2000/svg" xmlns:svg="http://www.w3.org/2000/svg" xmlns:xlink="http://www.w3.org/1999/xlink" id="svg17902" width="203.916" height="173.474" version="1.1" viewBox="0 0 53.953 45.898"><defs id="defs17899"><linearGradient id="linearGradient19476"><stop style="stop-color:#f4f4f7;stop-opacity:1" id="stop19472" offset="0"/><stop style="stop-color:#6e6e96;stop-opacity:.69999999" id="stop19474" offset="1"/></linearGradient><linearGradient id="linearGradient19464"><stop style="stop-color:#f4f4f7;stop-opacity:1" id="stop19462" offset="0"/></linearGradient><linearGradient id="linearGradient19352"><stop style="stop-color:#f4f4f7;stop-opacity:1" id="stop19348" offset=".225"/><stop style="stop-color:#5d5d7d;stop-opacity:1" id="stop19350" offset="1"/></linearGradient><linearGradient id="linearGradient18997"><stop style="stop-color:#555e70;stop-opacity:1" id="stop18995" offset="0"/></linearGradient><linearGradient id="linearGradient19354" x1="89.107" x2="94.855" y1="134.696" y2="134.696" gradientUnits="userSpaceOnUse" xlink:href="#linearGradient19352"/><linearGradient id="linearGradient19478" x1="41.396" x2="87.883" y1="134.561" y2="134.561" gradientTransform="matrix(0.96866687,0,0,0.97488578,2.7584009,3.9738889)" gradientUnits="userSpaceOnUse" spreadMethod="reflect" xlink:href="#linearGradient19476"/><filter style="color-interpolation-filters:sRGB" id="filter2047" width="1.044" height="1.044" x="-.022" y="-.022"><feColorMatrix id="feColorMatrix2033" result="result2" type="luminanceToAlpha"/><feDiffuseLighting id="feDiffuseLighting2037" diffuseConstant=".5" result="result1" surfaceScale="-10"><feDistantLight id="feDistantLight2035" azimuth="225" elevation="20"/></feDiffuseLighting><feComposite id="feComposite2039" in="result1" in2="SourceGraphic" k1="1" k2="1" k3="1" operator="arithmetic" result="result3"/><feBlend id="feBlend2041" in="result2" in2="result3" mode="multiply" result="result4"/><feComposite id="feComposite2043" in2="result4" k2="1.2" operator="arithmetic" result="result5"/><feComposite id="feComposite2045" in="result5" in2="SourceGraphic" operator="in"/></filter><filter style="color-interpolation-filters:sRGB" id="filter2063" width="1.075" height="1.009" x="-.037" y="-.005"><feColorMatrix id="feColorMatrix2049" result="result2" type="luminanceToAlpha"/><feDiffuseLighting id="feDiffuseLighting2053" diffuseConstant=".5" result="result1" surfaceScale="-10"><feDistantLight id="feDistantLight2051" azimuth="225" elevation="20"/></feDiffuseLighting><feComposite id="feComposite2055" in="result1" in2="SourceGraphic" k1="1" k2="1" k3="1" operator="arithmetic" result="result3"/><feBlend id="feBlend2057" in="result2" in2="result3" mode="multiply" result="result4"/><feComposite id="feComposite2059" in2="result4" k2="1.2" operator="arithmetic" result="result5"/><feComposite id="feComposite2061" in="result5" in2="SourceGraphic" operator="in"/></filter></defs><g id="layer1" transform="translate(-41.745714,-111.61143)"><path style="fill:url(#linearGradient19478);fill-opacity:1;stroke:#2f303d;stroke-width:1.92411;stroke-linecap:round;stroke-linejoin:bevel;stroke-dasharray:none;stroke-opacity:1;paint-order:stroke markers fill;filter:url(#filter2047)" id="path917" d="m 43.573867,143.13766 v -14.01013 h 14.568239 14.568242 v -1.24896 -1.24898 H 58.142106 43.573867 v -6.73354 -6.73356 H 65.37227 87.170673 v 21.99265 21.99266 h -6.582686 -6.582686 v -7.98252 -7.98252 h -7.985554 -7.985553 v 1.30327 1.30327 h 6.690598 6.690601 v 6.67925 6.67925 H 57.494629 43.573867 Z"/><g id="g19346" style="fill:url(#linearGradient19354);fill-opacity:1;filter:url(#filter2063)"><path style="fill:url(#linearGradient19354);stroke:#3c3f4c;stroke-width:.401;stroke-linecap:round;stroke-linejoin:bevel;stroke-dasharray:none;stroke-opacity:1;paint-order:fill markers stroke;fill-opacity:1;stroke-dashoffset:0" id="path1264" d="m 89.307093,116.259 v -1.67105 h 1.838159 c 1.763889,0 1.838158,-0.009 1.838158,-0.22281 0,-0.21381 -0.07427,-0.22281 -1.838158,-0.22281 h -1.838159 v -0.83552 -0.83553 h 2.673684 2.673686 v 2.72939 2.72938 h -0.724125 -0.724123 v -0.94693 -0.94693 h -1.114033 c -0.915985,0 -1.114036,0.0297 -1.114036,0.16711 0,0.13368 0.167106,0.1671 0.835525,0.1671 h 0.835528 v 0.77983 0.77982 h -1.671053 -1.671053 z"/><path style="fill:url(#linearGradient19354);stroke:#3c3f4c;stroke-width:.401;stroke-linecap:round;stroke-linejoin:bevel;stroke-dasharray:none;stroke-opacity:1;paint-order:fill markers stroke;fill-opacity:1;stroke-dashoffset:0" id="path1266" d="m 89.307093,121.77347 v -2.72938 h 0.779825 0.779825 v 1.83815 c 0,1.76389 0.009,1.83816 0.222806,1.83816 0.213804,0 0.222808,-0.0743 0.222808,-1.83816 v -1.83815 h 0.66842 0.668422 v 1.83815 1.83816 h 0.278508 0.278508 v -1.83816 -1.83815 h 0.724123 0.724125 v 2.72938 2.72939 h -2.673686 -2.673684 z"/><path style="fill:url(#linearGradient19354);stroke:#3c3f4c;stroke-width:.401;stroke-linecap:round;stroke-linejoin:bevel;stroke-dasharray:none;stroke-opacity:1;paint-order:fill markers stroke;fill-opacity:1;stroke-dashoffset:0" id="path1268" d="m 89.307093,128.23488 v -2.72939 h 2.673684 2.673686 v 0.77982 0.77983 h -1.838159 -1.838158 v 0.27851 0.27851 h 1.838158 1.838159 v 0.66842 0.66842 h -1.838159 c -1.763889,0 -1.838158,0.009 -1.838158,0.22281 0,0.2138 0.07427,0.2228 1.838158,0.2228 h 1.838159 v 0.77983 0.77982 h -2.673686 -2.673684 z"/><path style="fill:url(#linearGradient19354);stroke:#3c3f4c;stroke-width:.401;stroke-linecap:round;stroke-linejoin:bevel;stroke-dasharray:none;stroke-opacity:1;paint-order:fill markers stroke;fill-opacity:1;stroke-dashoffset:0" id="path1270" d="m 89.307093,136.75724 v -0.77982 h 1.838159 1.838158 v -0.27851 -0.27851 h -1.838158 -1.838159 v -1.67105 -1.67105 h 2.673684 2.673686 v 0.77982 0.77983 h -1.838159 c -1.763889,0 -1.838158,0.009 -1.838158,0.2228 0,0.21381 0.07427,0.22281 1.838158,0.22281 h 1.838159 v 1.72675 1.72676 h -2.673686 -2.673684 z"/><path style="fill:url(#linearGradient19354);stroke:#3c3f4c;stroke-width:.401;stroke-linecap:round;stroke-linejoin:bevel;stroke-dasharray:none;stroke-opacity:1;paint-order:fill markers stroke;fill-opacity:1;stroke-dashoffset:0" id="path1272" d="m 89.307093,141.26909 v -2.72939 h 2.673684 2.673686 v 2.72939 2.72938 h -2.673686 -2.673684 z m 2.896492,0.0557 c 0,-0.92836 -0.01651,-1.00263 -0.222808,-1.00263 -0.204981,0 -0.222806,0.0743 -0.222806,0.92836 0,0.94714 0.03579,1.0769 0.297077,1.0769 0.112778,0 0.148537,-0.24138 0.148537,-1.00263 z"/><path style="fill:url(#linearGradient19354);stroke:#3c3f4c;stroke-width:.401;stroke-linecap:round;stroke-linejoin:bevel;stroke-dasharray:none;stroke-opacity:1;paint-order:fill markers stroke;fill-opacity:1;stroke-dashoffset:0" id="path1274" d="m 89.307093,147.84189 v -2.72938 h 2.673684 2.673686 v 2.72938 2.72939 h -0.724125 -0.724123 v -1.90161 -1.90161 l -0.250658,0.0356 c -0.247129,0.0351 -0.251087,0.0619 -0.281202,1.90161 l -0.03054,1.86601 H 91.978086 91.31236 v -1.89386 c 0,-1.81959 -0.0087,-1.89386 -0.222808,-1.89386 -0.214069,0 -0.222806,0.0743 -0.222806,1.89386 v 1.89386 h -0.779825 -0.779825 z"/><path style="fill:url(#linearGradient19354);stroke:#3c3f4c;stroke-width:.401;stroke-linecap:round;stroke-linejoin:bevel;stroke-dasharray:none;stroke-opacity:1;paint-order:fill markers stroke;fill-opacity:1;stroke-dashoffset:0" id="path1276" d="m 89.307093,154.2476 v -2.67369 h 2.673684 2.673686 v 0.77983 0.77982 h -1.838159 c -1.763889,0 -1.838158,0.009 -1.838158,0.22281 0,0.2138 0.07427,0.2228 1.838158,0.2228 h 1.838159 v 0.72413 0.72412 h -1.838159 c -1.763889,0 -1.838158,0.009 -1.838158,0.22281 0,0.2138 0.07427,0.2228 1.838158,0.2228 h 1.838159 v 0.72413 0.72412 h -2.673686 -2.673684 z"/></g></g></svg>